<mxfile host="app.diagrams.net" modified="2022-01-12T06:35:45.751Z" agent="5.0 (Macintosh; Intel Mac OS X 10_15_7) AppleWebKit/537.36 (KHTML, like Gecko) Chrome/97.0.4692.71 Safari/537.36" etag="tN4YIPfxwv5WKXq9dmjW" version="15.9.4" type="github">
  <diagram id="vLehhctE43RHm_RbdSCc" name="第 1 页">
    <mxGraphModel dx="1298" dy="721" grid="1" gridSize="10" guides="1" tooltips="1" connect="1" arrows="1" fold="1" page="1" pageScale="1" pageWidth="827" pageHeight="1169" math="0" shadow="0">
      <root>
        <mxCell id="0" />
        <mxCell id="1" parent="0" />
        <mxCell id="ILwsyb_016WUy8WBWueU-1" value="Fusion" style="shape=umlLifeline;perimeter=lifelinePerimeter;container=1;collapsible=0;recursiveResize=0;rounded=0;shadow=0;strokeWidth=1;size=40;" parent="1" vertex="1">
          <mxGeometry x="310" y="110" width="90" height="600" as="geometry" />
        </mxCell>
        <mxCell id="ILwsyb_016WUy8WBWueU-16" value="" style="points=[];perimeter=orthogonalPerimeter;rounded=0;shadow=0;strokeWidth=1;" parent="ILwsyb_016WUy8WBWueU-1" vertex="1">
          <mxGeometry x="40" y="220" width="10" height="90" as="geometry" />
        </mxCell>
        <mxCell id="ILwsyb_016WUy8WBWueU-22" value="" style="points=[];perimeter=orthogonalPerimeter;rounded=0;shadow=0;strokeWidth=1;" parent="ILwsyb_016WUy8WBWueU-1" vertex="1">
          <mxGeometry x="40" y="360" width="10" height="70" as="geometry" />
        </mxCell>
        <mxCell id="ILwsyb_016WUy8WBWueU-2" value="Fusion Mis" style="shape=umlLifeline;perimeter=lifelinePerimeter;container=1;collapsible=0;recursiveResize=0;rounded=0;shadow=0;strokeWidth=1;" parent="1" vertex="1">
          <mxGeometry x="100" y="110" width="100" height="600" as="geometry" />
        </mxCell>
        <mxCell id="ILwsyb_016WUy8WBWueU-3" value="" style="points=[];perimeter=orthogonalPerimeter;rounded=0;shadow=0;strokeWidth=1;" parent="ILwsyb_016WUy8WBWueU-2" vertex="1">
          <mxGeometry x="45" y="90" width="10" height="120" as="geometry" />
        </mxCell>
        <mxCell id="ILwsyb_016WUy8WBWueU-4" value="启动请求配置" style="verticalAlign=bottom;endArrow=block;shadow=0;strokeWidth=1;exitX=0.489;exitY=0.168;exitDx=0;exitDy=0;exitPerimeter=0;" parent="1" source="ILwsyb_016WUy8WBWueU-1" edge="1">
          <mxGeometry relative="1" as="geometry">
            <mxPoint x="195" y="190" as="sourcePoint" />
            <mxPoint x="160" y="211" as="targetPoint" />
          </mxGeometry>
        </mxCell>
        <mxCell id="ILwsyb_016WUy8WBWueU-6" value="H5" style="shape=umlLifeline;perimeter=lifelinePerimeter;container=1;collapsible=0;recursiveResize=0;rounded=0;shadow=0;strokeWidth=1;" parent="1" vertex="1">
          <mxGeometry x="500" y="110" width="160" height="600" as="geometry" />
        </mxCell>
        <mxCell id="ILwsyb_016WUy8WBWueU-7" value="" style="points=[];perimeter=orthogonalPerimeter;rounded=0;shadow=0;strokeWidth=1;" parent="ILwsyb_016WUy8WBWueU-6" vertex="1">
          <mxGeometry x="75" y="330" width="10" height="130" as="geometry" />
        </mxCell>
        <mxCell id="ILwsyb_016WUy8WBWueU-23" value="页面加载开始" style="text;html=1;strokeColor=none;fillColor=none;align=center;verticalAlign=middle;whiteSpace=wrap;rounded=0;" parent="ILwsyb_016WUy8WBWueU-6" vertex="1">
          <mxGeometry x="85" y="310" width="80" height="30" as="geometry" />
        </mxCell>
        <mxCell id="ILwsyb_016WUy8WBWueU-25" value="页面加载完成" style="text;html=1;strokeColor=none;fillColor=none;align=center;verticalAlign=middle;whiteSpace=wrap;rounded=0;" parent="ILwsyb_016WUy8WBWueU-6" vertex="1">
          <mxGeometry x="85" y="445" width="80" height="30" as="geometry" />
        </mxCell>
        <mxCell id="ILwsyb_016WUy8WBWueU-14" value="返回配置" style="verticalAlign=bottom;endArrow=open;dashed=1;endSize=8;shadow=0;strokeWidth=1;exitX=1.2;exitY=0.825;exitDx=0;exitDy=0;exitPerimeter=0;" parent="1" source="ILwsyb_016WUy8WBWueU-3" target="ILwsyb_016WUy8WBWueU-1" edge="1">
          <mxGeometry relative="1" as="geometry">
            <mxPoint x="185" y="299" as="targetPoint" />
            <mxPoint x="160" y="300" as="sourcePoint" />
          </mxGeometry>
        </mxCell>
        <mxCell id="ILwsyb_016WUy8WBWueU-20" value="下载更新的离线资源" style="text;html=1;strokeColor=none;fillColor=none;align=center;verticalAlign=middle;whiteSpace=wrap;rounded=0;" parent="1" vertex="1">
          <mxGeometry x="230" y="360" width="110" height="30" as="geometry" />
        </mxCell>
        <mxCell id="ILwsyb_016WUy8WBWueU-21" value="请求拦截" style="verticalAlign=bottom;endArrow=block;shadow=0;strokeWidth=1;exitX=0.1;exitY=0.262;exitDx=0;exitDy=0;exitPerimeter=0;" parent="1" source="ILwsyb_016WUy8WBWueU-7" edge="1">
          <mxGeometry relative="1" as="geometry">
            <mxPoint x="194.01" y="220.79999999999995" as="sourcePoint" />
            <mxPoint x="360" y="474" as="targetPoint" />
          </mxGeometry>
        </mxCell>
        <mxCell id="ILwsyb_016WUy8WBWueU-24" value="返回数据" style="verticalAlign=bottom;endArrow=open;dashed=1;endSize=8;shadow=0;strokeWidth=1;entryX=0.1;entryY=0.731;entryDx=0;entryDy=0;entryPerimeter=0;" parent="1" source="ILwsyb_016WUy8WBWueU-22" target="ILwsyb_016WUy8WBWueU-7" edge="1">
          <mxGeometry relative="1" as="geometry">
            <mxPoint x="550" y="535" as="targetPoint" />
            <mxPoint x="167" y="309" as="sourcePoint" />
          </mxGeometry>
        </mxCell>
        <mxCell id="ILwsyb_016WUy8WBWueU-28" value="1" style="ellipse;whiteSpace=wrap;html=1;aspect=fixed;fontSize=24;fillColor=#d5e8d4;strokeColor=#82b366;" parent="1" vertex="1">
          <mxGeometry x="380" y="230" width="40" height="40" as="geometry" />
        </mxCell>
        <mxCell id="xPUKuD6BT_cX2ctzqZpt-1" value="2" style="ellipse;whiteSpace=wrap;html=1;aspect=fixed;fontSize=24;fillColor=#d5e8d4;strokeColor=#82b366;" vertex="1" parent="1">
          <mxGeometry x="380" y="350" width="40" height="40" as="geometry" />
        </mxCell>
        <mxCell id="xPUKuD6BT_cX2ctzqZpt-2" value="3" style="ellipse;whiteSpace=wrap;html=1;aspect=fixed;fontSize=24;fillColor=#d5e8d4;strokeColor=#82b366;" vertex="1" parent="1">
          <mxGeometry x="660" y="480" width="40" height="40" as="geometry" />
        </mxCell>
      </root>
    </mxGraphModel>
  </diagram>
</mxfile>
